<svg width="1440" height="349" viewBox="0 0 1440 349" fill="none" xmlns="http://www.w3.org/2000/svg">
<mask id="mask0_1_1090" style="mask-type:alpha" maskUnits="userSpaceOnUse" x="0" y="0" width="1440" height="349">
<path d="M0 0H1440V349H0V0Z" fill="#EFF5F5"/>
</mask>
<g mask="url(#mask0_1_1090)">
<path d="M0 0H1440V349H0V0Z" fill="#ECF5FA"/>
<path d="M320.621 335.74C332.329 335.823 342.203 345.84 341.876 357.466C341.567 368.444 332.779 378.637 319.909 378.794C309.128 378.932 298.711 367.991 298.935 357.207C299.197 345.221 309.633 334.899 320.621 335.74Z" fill="white"/>
<path d="M104.309 356.994C104.309 368.619 94.3415 379.598 83.232 378.84C71.1959 378.017 62.3233 369.774 62.2203 356.698C62.0987 345.092 71.5797 335.767 83.0542 335.73C95.4178 335.712 104.309 344.593 104.309 356.994Z" fill="white"/>
<path d="M241.413 325.917C253.046 325.844 262.686 334.881 262.995 346.146C263.304 358.206 254.104 367.613 241.843 367.752C229.742 367.909 220.139 358.548 220.158 346.562C220.176 335.214 231.548 324.836 241.413 325.917Z" fill="white"/>
<path d="M182.561 346.561C184.237 356.865 175.551 367.991 161.587 367.732C149.794 367.529 141.633 359.267 141.53 347.43C141.427 334.381 149.495 325.944 162.093 325.917C174.475 325.898 182.496 334.002 182.561 346.561Z" fill="white"/>
<path d="M447.402 340.111C459.213 341.229 467.356 348.539 467.787 360.598C468.133 370.763 459.578 381.705 446.775 381.243C434.112 380.799 426.933 370.68 426.793 360.497C426.652 349.832 436.826 340.028 447.402 340.111Z" fill="white"/>
<path d="M347.827 333.947C346.451 321.989 358.665 313.238 367.603 313.321C378.787 313.395 388.128 322.405 388.193 333.467C388.278 344.787 379.377 353.853 368.117 354.037C356.203 354.241 346.329 343.133 347.836 333.947" fill="white"/>
<path d="M15.6937 333.448C15.7967 322.165 24.9501 312.942 36.1532 313.423C48.3484 313.94 56.0137 322.849 56.5191 333.993C57.0057 344.519 46.2706 354.259 35.6478 354.037C24.2201 353.797 15.5908 344.898 15.6937 333.448Z" fill="white"/>
<path d="M201.355 331.655C189.824 333.235 181.597 321.656 181.756 312.129C181.962 300.143 190.17 291.78 202.038 291.919C213.765 292.057 222.338 300.762 222.179 312.369C222.02 323.93 213.569 331.757 201.345 331.655" fill="white"/>
<path d="M138.281 317.609C138.281 329.169 129.605 337.616 117.878 337.477C106.067 337.32 97.8586 328.938 97.999 317.091C98.1394 304.089 108.247 297.02 118.346 296.881C129.53 296.724 138.281 306.141 138.281 317.609Z" fill="white"/>
<path d="M265.587 317.22C265.034 304.135 276.471 296.918 285.662 296.835C294.235 296.752 305.822 303.839 305.644 317.498C305.504 329.104 297.071 337.504 285.4 337.467C273.467 337.403 265.502 329.28 265.587 317.22Z" fill="white"/>
<path d="M499.186 368.777C488.263 368.796 480.645 361.477 480.439 350.729C480.214 339.825 488.404 331.628 499.364 331.739C510.37 331.878 517.193 339.058 517.174 350.489C517.156 361.976 510.492 368.759 499.186 368.777Z" fill="white"/>
<path d="M52.8321 293.933C52.8321 281.828 58.5413 276.191 70.7833 276.209C82.2484 276.228 89.5862 283.075 89.5487 293.98C89.4926 305.244 80.9569 312.97 70.3996 313.145C60.123 313.302 52.8321 304.958 52.8321 293.933Z" fill="white"/>
<path d="M-13.8447 298.601C-3.26869 296.457 4.8739 309.348 4.79903 316.889C4.69608 326.971 -3.97064 335.593 -13.9664 335.62C-24.8513 335.639 -33.0781 327.193 -32.7692 316.316C-32.4604 305.448 -25.1321 298.592 -13.8447 298.61" fill="white"/>
<path d="M245.465 300.661C234.439 300.606 227.429 293.481 227.41 282.318C227.373 271.654 235.169 263.392 245.624 263.715C258.352 264.094 264.164 271.838 264.183 282.983C264.221 294.331 254.927 302.389 245.465 300.67" fill="white"/>
<path d="M333.003 276.2C343.982 276.2 352.012 283.565 351.928 293.905C351.825 304.551 342.989 313.192 332.675 313.173C322.586 313.136 314.443 304.376 314.481 294.026C314.546 282.798 321.369 276.218 333.003 276.2Z" fill="white"/>
<path d="M158.264 300.661C147.22 302.121 139.461 291.66 139.115 283.158C138.731 273.215 148.436 263.272 157.917 263.577C168.213 263.9 176.337 271.82 176.44 282.299C176.561 293.287 169.345 300.568 158.264 300.661Z" fill="white"/>
<path d="M400.044 316.601C398.743 306.242 407.943 297.657 417.995 298.415C429.095 299.256 436.592 305.78 436.714 316.564C436.817 327.265 428.225 335.813 417.565 335.629C406.82 335.425 399.96 327.986 400.035 316.601" fill="white"/>
<path d="M292.917 276.108C282.95 276.052 276.67 267.661 275.958 258.947C275.228 249.9 283.455 243.283 293.526 243.006C305.384 242.683 309.979 251.185 310.139 259.557C310.316 268.779 302.071 276.246 292.917 276.117" fill="white"/>
<path d="M4.14365 276.958C4.24661 267.181 11.5375 259.714 20.7939 259.917C29.7882 260.102 38.0618 268.437 37.8746 277.142C37.7155 285.727 28.8429 294.987 20.6348 294.248C9.85283 293.305 3.81608 285.968 4.14365 276.958Z" fill="white"/>
<path d="M126.723 259.058C126.76 268.862 119.937 276.089 110.597 276.107C101.518 276.126 93.7593 268.52 93.675 259.52C93.5721 249.918 100.386 243.117 110.147 243.071C120.742 243.015 126.685 248.735 126.723 259.058Z" fill="white"/>
<path d="M552.227 329.955C561.024 330.056 569.045 338.558 568.718 347.402C568.372 356.365 561.099 363.527 552.105 363.426C540.818 363.305 535.792 356.606 535.389 346.801C534.987 337.662 543.167 329.853 552.227 329.955Z" fill="white"/>
<path d="M399.885 277.244C399.782 286.208 391.714 294.395 383.01 294.395C374.305 294.395 366.865 286.67 366.902 276.847C366.94 266.986 373.997 259.741 383.44 259.899C392.519 260.037 399.997 267.92 399.894 277.244" fill="white"/>
<path d="M202.009 236.971C211.818 237.008 218.725 243.93 218.566 253.54C218.425 262.726 211.593 269.306 202.112 269.37C191.882 269.435 185.396 263.086 185.087 253.208C184.844 244.808 192.201 235.687 202.009 236.981" fill="white"/>
<path d="M453.458 306.399C453.514 296.539 460.365 289.738 470.192 289.793C479.13 289.858 486.365 297.158 486.44 306.196C486.524 315.973 479.486 323.144 469.949 323.338C460.926 323.523 452.138 315.012 453.458 306.39" fill="white"/>
<path d="M168.476 230.281C168.373 238.302 161.803 245.066 154.194 244.983C147.099 244.9 139.06 236.26 139.462 229.135C139.883 221.492 146.959 215.264 154.942 215.467C163.31 215.689 170.02 222.768 168.476 230.271" fill="white"/>
<path d="M263.014 229.348C263.089 237.831 257.342 244.549 249.658 244.956C242.348 245.353 235.17 238.293 234.889 230.392C234.562 221.733 240.055 215.791 248.647 215.533C257.585 215.274 262.911 220.393 263.014 229.357" fill="white"/>
<path d="M329.408 241.878C329.483 233.081 335.117 227.657 343.812 227.971C352.001 228.248 358.787 235.077 358.422 242.636C358.057 249.955 350.335 257.117 343.063 256.877C334.612 256.618 329.324 250.796 329.408 241.869" fill="white"/>
<path d="M618.481 350.434C618.5 359.841 613.596 364.878 604.536 364.776C596.393 364.693 589.889 358.27 589.786 350.231C589.72 342.782 596.983 335.722 604.676 335.75C613.446 335.768 618.453 341.11 618.472 350.434" fill="white"/>
<path d="M522.717 317.221C515.547 318.487 508.406 311.981 507.948 303.174C507.498 295.227 514.209 288.61 522.314 288.546C530.869 288.49 536.924 294.349 537.008 302.749C537.064 311.177 531.215 317.119 522.726 317.211" fill="white"/>
<path d="M449.03 266.543C449.03 275.405 443.62 280.968 435.028 280.912C426.54 280.857 420.456 275.054 420.316 266.884C420.175 258.743 426.315 252.579 434.682 252.478C443.311 252.376 449.03 257.958 449.03 266.543Z" fill="white"/>
<path d="M60.2052 227.841C68.432 227.601 74.8713 233.663 75.1146 241.805C75.3392 249.669 68.9094 256.784 60.9727 256.812C51.7725 256.812 45.979 249.225 46.2785 242.59C46.681 233.903 51.7069 228.082 60.1958 227.841" fill="white"/>
<path d="M104.701 200.783C111.243 200.941 116.98 206.762 116.858 213.148C116.755 219.071 110.457 224.671 104.027 224.551C97.5033 224.431 91.6911 218.665 91.869 212.464C92.0562 206.282 98.2708 200.617 104.701 200.774" fill="white"/>
<path d="M563.044 306.714C562.839 300.43 567.93 294.969 574.313 294.654C581.22 294.294 587.22 299.275 587.65 305.753C588.034 311.639 581.978 318.201 575.689 318.653C569.362 319.115 563.25 313.349 563.044 306.705" fill="white"/>
<path d="M310.905 213.14C310.746 220.847 306.562 224.784 298.803 224.562C291.756 224.34 287.17 219.202 287.581 211.92C287.946 205.22 292.767 200.877 299.552 200.831C306.113 200.794 311.934 205.692 310.905 213.131" fill="white"/>
<path d="M644.648 360.894C644.527 353.871 649.637 348.613 656.479 348.308C661.486 348.086 668.674 354.13 668.356 359.951C667.953 366.956 663.573 372.676 656.965 372.935C650.461 373.212 644.77 367.649 644.648 360.894Z" fill="white"/>
<path d="M476.453 263.262C476.434 256.045 480.664 251.258 487.206 251.083C493.852 250.898 499.486 256.48 499.467 263.189C499.448 269.047 493.749 275.535 488.217 275.932C482.405 276.348 476.462 269.971 476.443 263.262" fill="white"/>
<path d="M201.252 217.806C194.298 218.591 190.348 213.426 189.927 206.467C189.506 199.684 195.196 194.463 202.103 194.565C209.235 194.685 214.074 199.712 213.83 206.726C213.568 213.989 209.048 217.972 201.252 217.806Z" fill="white"/>
<path d="M395.691 243.699C388.232 243.921 383.515 239.374 383.496 231.935C383.477 224.81 387.67 220.532 394.802 220.412C401.653 220.292 407.671 225.679 407.605 231.898C407.549 237.859 401.849 243.523 395.691 243.699Z" fill="white"/>
<path d="M8.71154 243.708C1.35512 243.828 -3.32451 239.17 -3.30579 231.704C-3.26835 224.699 1.00883 220.54 8.3091 220.42C15.7217 220.282 20.0363 224.144 20.3265 231.168C20.626 238.311 15.7497 243.588 8.71154 243.708Z" fill="white"/>
<path d="M360.293 202.262C360.434 207.825 357.074 211.651 351.72 211.947C345.983 212.27 342.015 208.389 342.015 202.428C342.015 196.847 345.403 193.483 351.112 193.381C356.821 193.298 360.144 196.505 360.293 202.262Z" fill="white"/>
<path d="M617.995 316.195C618.219 311.473 623.18 306.797 627.597 307.139C631.631 307.462 637.144 313.303 636.938 317.018C636.657 322.304 632.015 326.139 626.381 325.806C620.728 325.464 617.733 322.026 617.995 316.204" fill="white"/>
<path d="M448.03 218.388C455.649 221.909 458.26 225.069 457.511 229.791C456.828 233.996 452.167 237.692 447.628 237.609C443.229 237.526 440.065 235.53 439.579 231.704C438.652 224.284 439.129 220.338 448.03 218.379" fill="white"/>
<path d="M252.111 180.167C257.605 180.287 261.208 184.011 261.142 189.454C261.058 194.232 256.547 199.019 252.008 199.139C246.795 199.278 242.424 194.5 242.564 188.872C242.686 183.494 246.476 180.047 252.111 180.167Z" fill="white"/>
<path d="M42.5449 202.448C46.5788 193.983 48.9654 192.264 54.946 193.466C58.7365 194.205 61.6286 197.846 61.797 202.069C61.9562 206.329 58.8769 210.755 54.946 211.837C49.9388 213.232 46.6349 210.737 42.5449 202.448Z" fill="white"/>
<path d="M540.555 276.089C535.201 276.108 531.514 272.43 531.355 266.904C531.214 261.544 534.902 257.524 540.171 257.284C545.544 257.062 550.279 261.683 550.12 266.987C549.961 271.968 545.646 276.071 540.555 276.089Z" fill="white"/>
<path d="M142.775 189.556C142.691 183.836 145.995 180.297 151.591 180.13C157.104 179.946 160.689 183.494 160.792 189.196C160.876 194.02 156.271 199.222 151.956 199.195C147.558 199.176 142.84 194.214 142.784 189.547" fill="white"/>
<path d="M592.762 269.657C596.084 269.897 598.836 273.797 598.499 277.743C598.153 281.448 595.214 284.221 591.91 283.944C588.307 283.666 585.228 280.081 585.49 276.458C585.733 273.058 589.598 269.435 592.762 269.657Z" fill="white"/>
<path d="M500.366 238.478C496.679 238.358 494.33 235.798 494.283 231.861C494.245 227.999 497.624 224.663 501.19 225.042C504.821 225.439 507.629 229.006 507.292 232.823C506.965 236.427 504.297 238.626 500.366 238.487" fill="white"/>
<path d="M208.252 172.885C208.028 176.424 205.052 179.012 201.439 178.808C197.545 178.568 194.953 176.008 195.018 172.488C195.084 168.727 198.519 165.705 202.375 165.963C205.922 166.222 208.496 169.263 208.252 172.885Z" fill="white"/>
<path d="M677.341 327.783C681.478 327.802 683.602 329.909 683.518 333.845C683.453 337.708 681.122 339.889 677.116 339.824C673.251 339.787 670.434 337.44 670.247 334.086C670.022 330.241 672.82 327.746 677.341 327.783Z" fill="white"/>
<path d="M410.019 199.148C409.954 203.233 407.829 205.395 403.964 205.367C399.79 205.331 397.422 202.688 397.6 198.307C397.759 194.666 400.314 192.485 404.282 192.587C408.176 192.707 410.076 194.888 410.019 199.148Z" fill="white"/>
<path d="M296.21 177.257C298.259 175.954 300.281 174.179 302.649 173.338C304.128 172.802 306.739 172.997 307.731 173.995C309.229 175.501 310.464 177.959 310.53 180.038C310.633 183.217 307.9 184.483 305.017 184.917C300.702 185.555 299.139 184.261 296.2 177.257" fill="white"/>
<path d="M0.0815768 205.386C-3.54984 205.571 -6.38572 203.205 -6.76945 199.685C-7.19062 195.822 -4.42025 192.745 -0.386389 192.606C3.14207 192.486 6.29618 194.99 6.70799 198.224C7.09172 201.385 3.54452 205.211 0.0815768 205.386Z" fill="white"/>
<path d="M100.19 173.145C104.486 173.182 106.264 175.048 106.105 179.345C105.965 183.264 103.756 185.186 99.4972 185.047C95.3229 184.945 93.292 182.829 93.4791 178.745C93.6382 174.78 95.6505 173.108 100.19 173.145Z" fill="white"/>
<path d="M552.6 236.88C554.65 239.384 556.877 240.964 556.69 242.147C556.447 243.69 554.322 245.89 552.881 245.991C551.589 246.093 549.259 243.912 548.969 242.433C548.744 241.195 550.794 239.513 552.6 236.889" fill="white"/>
<path d="M254.254 157.009C255.612 159.606 256.791 160.927 256.95 162.369C257.193 164.993 255.368 166.509 252.982 165.788C251.662 165.391 249.818 163.164 250.043 162.147C250.37 160.567 252.252 159.31 254.254 157" fill="white"/>
<path d="M150.083 167.849C148.24 164.965 146.574 163.487 146.433 161.851C146.19 159.273 148.436 158.072 150.664 158.691C151.937 159.051 153.762 160.946 153.659 161.99C153.5 163.588 151.899 165.049 150.074 167.849" fill="white"/>
<path d="M42.9476 175.574C45.1751 172.257 47.543 171.314 50.0232 173.975C50.669 174.678 50.4912 177.339 49.7144 177.977C46.8972 180.352 44.7914 178.772 42.9476 175.574Z" fill="white"/>
<path d="M647.241 294.082C644.911 295.847 643.554 297.427 641.906 297.806C641.261 297.963 639.174 295.422 639.211 294.146C639.248 292.945 641.12 291.069 642.374 290.866C643.507 290.709 644.929 292.446 647.241 294.082Z" fill="white"/>
<path d="M361.465 176.267C359.172 177.552 357.712 179.049 356.495 178.864C355.119 178.67 353.069 177.108 352.873 175.888C352.386 173.208 354.717 172.09 356.944 172.543C358.32 172.82 359.415 174.502 361.465 176.258" fill="white"/>
<path d="M456.537 197.928C458.118 199.767 460.018 201.033 459.943 202.114C459.84 203.417 458.062 205.496 456.92 205.552C455.722 205.589 453.598 203.814 453.42 202.585C453.233 201.449 455.058 199.988 456.546 197.918" fill="white"/>
</g>
</svg>
