<svg xmlns="http://www.w3.org/2000/svg" fill="none" viewBox="0 0 91 91" height="91" width="91">
<path stroke-width="2.25" stroke="#5EB3E4" fill="#194F90" d="M89.6504 45.7751C89.6504 70.0066 70.0069 89.6501 45.7754 89.6501C21.5439 89.6501 1.90039 70.0066 1.90039 45.7751C1.90039 21.5437 21.5439 1.90015 45.7754 1.90015C70.0069 1.90015 89.6504 21.5437 89.6504 45.7751Z"></path>
<path stroke-linejoin="round" stroke-linecap="round" stroke-width="2" stroke="white" d="M46.6851 72.9639C46.6851 72.9639 51.4011 40.0419 17.3811 38.9619C17.3811 38.9619 14.3751 62.2539 45.6051 60.9219"></path>
<path stroke-linejoin="round" stroke-linecap="round" stroke-width="2" stroke="white" d="M28.8281 49.2397C28.8281 49.2397 38.9441 52.2997 44.9381 60.5977"></path>
<path stroke-linejoin="round" stroke-linecap="round" stroke-width="2" stroke="white" d="M43.4246 53.2179C43.4246 53.2179 40.0406 24.6159 68.6606 19.8999C68.6606 19.8999 76.3466 50.5899 45.2066 55.9359"></path>
<path stroke-linejoin="round" stroke-linecap="round" stroke-width="2" stroke="white" d="M57.791 37.5042C57.791 37.5042 45.803 44.4162 45.209 55.9182"></path>
</svg>
