<svg xmlns="http://www.w3.org/2000/svg" fill="none" viewBox="0 0 90 90" height="90" width="90">
<path stroke-width="2.25" stroke="#5EB3E4" fill="#194F90" d="M88.875 45C88.875 69.2315 69.2315 88.875 45 88.875C20.7685 88.875 1.125 69.2315 1.125 45C1.125 20.7685 20.7685 1.125 45 1.125C69.2315 1.125 88.875 20.7685 88.875 45Z"></path>
<path stroke-linejoin="round" stroke-linecap="round" stroke-width="2" stroke="white" d="M44.3021 45.3675C40.1143 34.2185 44.9266 21.894 55.0837 16.3471C55.4327 16.1634 55.396 15.6308 55.0103 15.5206C47.9939 13.5185 40.2062 14.0144 33.0062 17.7063C20.6633 24.0246 14.198 38.3695 17.6327 51.7961C22.1511 69.4471 40.7756 78.8328 57.3797 72.6063C63.6429 70.2552 68.6572 66.0308 72.0184 60.8144C72.2388 60.4838 71.9266 60.0614 71.5225 60.1532C60.2082 62.6879 48.4899 56.5532 44.2837 45.4042L44.3021 45.3675Z"></path>
</svg>
