<svg xmlns="http://www.w3.org/2000/svg" fill="none" viewBox="0 0 90 90" height="90" width="90">
<path stroke-width="2.25" stroke="#5EB3E4" fill="#194F90" d="M88.875 45C88.875 69.2315 69.2315 88.875 45 88.875C20.7685 88.875 1.125 69.2315 1.125 45C1.125 20.7685 20.7685 1.125 45 1.125C69.2315 1.125 88.875 20.7685 88.875 45Z"></path>
<path stroke-miterlimit="10" stroke-width="2" stroke="white" d="M68.9159 35.3024H56.0036C55.2873 35.3024 54.6995 34.7146 54.6995 33.9983V21.0861C54.6995 20.3697 54.1118 19.782 53.3954 19.782H36.6077C35.8914 19.782 35.3036 20.3697 35.3036 21.0861V33.9983C35.3036 34.7146 34.7159 35.3024 33.9995 35.3024H21.0873C20.371 35.3024 19.7832 35.8901 19.7832 36.6065V53.3942C19.7832 54.1105 20.371 54.6983 21.0873 54.6983H33.9995C34.7159 54.6983 35.3036 55.2861 35.3036 56.0024V68.9146C35.3036 69.631 35.8914 70.2187 36.6077 70.2187H53.3954C54.1118 70.2187 54.6995 69.631 54.6995 68.9146V56.0024C54.6995 55.2861 55.2873 54.6983 56.0036 54.6983H68.9159C69.6322 54.6983 70.2199 54.1105 70.2199 53.3942V36.6065C70.2199 35.8901 69.6322 35.3024 68.9159 35.3024Z"></path>
</svg>
