<svg width="80" height="80" viewBox="0 0 80 80" fill="none" xmlns="http://www.w3.org/2000/svg" class="w-20 h-20 relative" preserveAspectRatio="none">
  <path d="M65.4088 52.1047L65.1668 53.075C65.4655 53.1495 65.7818 53.0822 66.0244 52.8927C66.267 52.7032 66.4088 52.4125 66.4088 52.1047H65.4088ZM65.4088 23.2102H66.4088C66.4088 22.7511 66.0962 22.351 65.6508 22.2399L65.4088 23.2102ZM6.96262 23.2102L7.20637 22.2403C6.90751 22.1652 6.59071 22.2321 6.3477 22.4216C6.10469 22.6111 5.96262 22.902 5.96262 23.2102H6.96262ZM11.2475 65.7215C10.8711 65.3174 10.2384 65.2949 9.83421 65.6713C9.43007 66.0477 9.40759 66.6805 9.784 67.0846L11.2475 65.7215ZM8.23335 14.6789C7.88113 15.1043 7.94045 15.7346 8.36584 16.0869C8.79124 16.4391 9.42162 16.3797 9.77384 15.9544L8.23335 14.6789ZM1 28.9101L1.24375 27.9402C0.944892 27.8651 0.628092 27.932 0.385083 28.1215C0.142074 28.311 0 28.6019 0 28.9101H1ZM1 57.8046H0C0 58.263 0.311703 58.6627 0.756305 58.7744L1 57.8046ZM59.4462 57.8046L59.2042 58.7749C59.5029 58.8494 59.8192 58.7821 60.0618 58.5926C60.3044 58.4031 60.4462 58.1124 60.4462 57.8046H59.4462ZM59.4462 28.9101H60.4462C60.4462 28.451 60.1336 28.0509 59.6882 27.9398L59.4462 28.9101ZM16.7493 15.1168C17.29 15.0044 17.6373 14.475 17.5249 13.9343C17.4126 13.3935 16.8832 13.0463 16.3424 13.1586L16.7493 15.1168ZM8.94195 15.7176L7.96385 15.9258C8.07841 16.4641 8.60649 16.8087 9.14539 16.6967L8.94195 15.7176ZM8.32182 7.99876C8.20687 7.45857 7.67578 7.11385 7.13559 7.22879C6.5954 7.34374 6.25067 7.87484 6.36562 8.41503L8.32182 7.99876ZM59.4956 52.0155C61.324 52.2414 63.2082 52.5864 65.1668 53.075L65.6508 51.1344C63.6139 50.6264 61.65 50.2665 59.7409 50.0306L59.4956 52.0155ZM66.4088 52.1047V23.2102H64.4088V52.1047H66.4088ZM65.6508 22.2399C54.7913 19.5313 46.0482 21.0971 37.146 22.5189C28.2481 23.9401 19.1237 25.2356 7.20637 22.2403L6.71887 24.18C19.0517 27.2797 28.516 25.9227 37.4614 24.4939C46.4026 23.0658 54.7575 21.5841 65.1668 24.1805L65.6508 22.2399ZM5.96262 23.2102V30.1436H7.96262V23.2102H5.96262ZM9.784 67.0846C17.1768 75.0221 27.772 80 39.5483 80V78C28.3469 78 18.2757 73.2674 11.2475 65.7215L9.784 67.0846ZM39.5483 80C61.881 80 80.0001 62.1049 80.0001 40H78.0001C78.0001 60.9786 60.7982 78 39.5483 78V80ZM80.0001 40C80.0001 17.8951 61.881 0 39.5483 0V2C60.7982 2 78.0001 19.0214 78.0001 40H80.0001ZM39.5483 0C26.9276 0 15.6518 5.71921 8.23335 14.6789L9.77384 15.9544C16.8256 7.43753 27.5439 2 39.5483 2V0ZM0 28.9101V57.8046H2V28.9101H0ZM0.756305 58.7744C13.0921 61.8741 22.5564 60.5171 31.5011 59.0883C40.4415 57.6602 48.7949 56.1786 59.2042 58.7749L59.6882 56.8343C48.8287 54.1257 40.0871 55.6915 31.1857 57.1133C22.2886 58.5345 13.1641 59.83 1.2437 56.8347L0.756305 58.7744ZM60.4462 57.8046V28.9101H58.4462V57.8046H60.4462ZM59.6882 27.9398C48.8287 25.2312 40.0856 26.797 31.1834 28.2188C22.2854 29.64 13.1611 30.9355 1.24375 27.9402L0.756247 29.8799C13.089 32.9796 22.5534 31.6226 31.4988 30.1938C40.44 28.7657 48.7949 27.2841 59.2042 29.8804L59.6882 27.9398ZM36.9624 43.4576C36.9624 47.9161 33.8201 51.2992 30.2109 51.2992V53.2992C35.1638 53.2992 38.9624 48.7653 38.9624 43.4576H36.9624ZM30.2109 51.2992C26.6018 51.2992 23.4595 47.9161 23.4595 43.4576H21.4595C21.4595 48.7653 25.2581 53.2992 30.2109 53.2992V51.2992ZM23.4595 43.4576C23.4595 38.9992 26.6018 35.6161 30.2109 35.6161V33.6161C25.2581 33.6161 21.4595 38.15 21.4595 43.4576H23.4595ZM30.2109 35.6161C33.8201 35.6161 36.9624 38.9992 36.9624 43.4576H38.9624C38.9624 38.15 35.1638 33.6161 30.2109 33.6161V35.6161ZM14.7034 44.91C14.7034 46.4075 13.4722 47.641 11.9291 47.641V49.641C14.555 49.641 16.7034 47.5337 16.7034 44.91H14.7034ZM11.9291 47.641C10.3861 47.641 9.15485 46.4075 9.15485 44.91H7.15485C7.15485 47.5337 9.30327 49.641 11.9291 49.641V47.641ZM9.15485 44.91C9.15485 43.4125 10.3861 42.1789 11.9291 42.1789V40.1789C9.30327 40.1789 7.15485 42.2863 7.15485 44.91H9.15485ZM11.9291 42.1789C13.4722 42.1789 14.7034 43.4125 14.7034 44.91H16.7034C16.7034 42.2863 14.555 40.1789 11.9291 40.1789V42.1789ZM51.2235 42.935C51.2235 44.4325 49.9923 45.6661 48.4492 45.6661V47.6661C51.0751 47.6661 53.2235 45.5588 53.2235 42.935H51.2235ZM48.4492 45.6661C46.9061 45.6661 45.6749 44.4325 45.6749 42.935H43.6749C43.6749 45.5588 45.8233 47.6661 48.4492 47.6661V45.6661ZM45.6749 42.935C45.6749 41.4375 46.9061 40.204 48.4492 40.204V38.204C45.8233 38.204 43.6749 40.3113 43.6749 42.935H45.6749ZM48.4492 40.204C49.9923 40.204 51.2235 41.4375 51.2235 42.935H53.2235C53.2235 40.3113 51.0751 38.204 48.4492 38.204V40.204ZM16.3424 13.1586L8.73852 14.7386L9.14539 16.6967L16.7493 15.1168L16.3424 13.1586ZM9.92005 15.5095L8.32182 7.99876L6.36562 8.41503L7.96385 15.9258L9.92005 15.5095Z" fill="#5EB3E4"></path>
</svg>