<svg width="85" height="85" viewBox="0 0 85 85" fill="none" xmlns="http://www.w3.org/2000/svg">
<path d="M42.4289 83.8578C65.3095 83.8578 83.8578 65.3095 83.8578 42.4289C83.8578 19.5484 65.3095 1 42.4289 1C19.5484 1 1 19.5484 1 42.4289C1 65.3095 19.5484 83.8578 42.4289 83.8578Z" stroke="#5EB3E4" stroke-width="2" stroke-miterlimit="10"></path>
<path d="M36.8388 61.7168L40.4279 60.3806C44.6301 58.8185 48.1094 61.691 51.989 60.2515L57.3015 58.2762L62.117 56.4882L68.5592 54.0933C70.5603 53.351 71.8062 51.2402 71.2898 49.1681C70.9605 47.8448 70.0504 46.8571 68.9143 46.3665C68.7916 46.3149 68.7852 46.1471 68.9143 46.089C70.7863 45.1659 71.7029 42.9389 70.9605 40.9378C70.4119 39.4725 69.1079 38.4978 67.6555 38.2912C67.5587 38.2783 67.5329 38.1686 67.6103 38.1105C69.2822 36.9227 69.9148 34.586 68.7916 32.6494C67.7717 30.8807 65.5512 30.2029 63.634 30.913L63.0401 31.1325C62.9627 31.1583 62.8981 31.0679 62.9562 31.0034C64.1762 29.7834 64.5764 27.8533 63.7179 26.1814C62.7496 24.2901 60.4387 23.5154 58.4441 24.2578L47.5414 28.3116L47.1541 28.4536C46.2116 28.8022 45.1917 28.1889 45.0626 27.1949C44.7141 24.2126 44.4494 22.3342 43.068 19.3519C41.9448 16.3374 36.6193 12.1028 33.8824 13.1227L33.3079 13.3357C32.2169 13.7424 31.6554 14.956 32.062 16.0533L34.5666 22.7796C35.6898 26.4396 33.5273 29.1572 33.6113 33.4951C33.6435 35.1153 33.2627 36.0771 32.1847 36.4773L28.0018 38.033" stroke="#5EB3E4" stroke-width="2" stroke-miterlimit="10"></path>
<path d="M25.7192 36.1842L14.9558 40.1871C14.2107 40.4642 13.8312 41.2929 14.1084 42.0381L23.6802 67.7759C23.9573 68.521 24.786 68.9004 25.5311 68.6233L36.2946 64.6204C37.0397 64.3433 37.4191 63.5146 37.142 62.7695L27.5702 37.0316C27.2931 36.2865 26.4644 35.9071 25.7192 36.1842Z" stroke="#5EB3E4" stroke-width="2" stroke-miterlimit="10"></path>
</svg>
