<svg xmlns="http://www.w3.org/2000/svg" fill="none" viewBox="0 0 90 90" height="90" width="90">
<path stroke-width="2.25" stroke="#5EB3E4" fill="#194F90" d="M88.875 45C88.875 69.2315 69.2315 88.875 45 88.875C20.7685 88.875 1.125 69.2315 1.125 45C1.125 20.7685 20.7685 1.125 45 1.125C69.2315 1.125 88.875 20.7685 88.875 45Z"></path>
<path stroke-linejoin="round" stroke-linecap="round" stroke-width="2" stroke="white" d="M45.5538 18.2424C45.5538 18.2424 42.3219 23.9081 45.2228 28.1135C48.1238 32.319 51.2195 33.9349 55.2497 34.4217C55.2497 34.4217 55.7364 52.0612 55.8922 53.0347C56.048 54.0081 55.8922 56.7534 59.9419 58.0578C63.9916 59.3623 69.9688 60.4915 70.9422 61.465C71.9157 62.4385 72.4025 64.3855 71.5847 65.028C71.5847 65.028 72.8308 66.1767 70.4555 68.1042C67.866 70.2069 64.4588 72.6406 60.9154 72.6406H48.6106C43.4316 72.6406 37.4739 68.0458 34.534 63.743C29.6861 56.6171 31.6136 50.6399 28.8683 46.415C24.916 40.3599 21.2168 38.2183 18.3547 32.4942C15.4927 26.7701 16.252 21.8053 23.5337 21.1629C23.5337 21.1629 31.4578 15.4972 36.9677 15.1662C42.4776 14.8352 46.1963 16.9379 45.5538 18.2424V18.2424Z"></path>
<path stroke-linejoin="round" stroke-linecap="round" stroke-width="2" stroke="white" d="M23.2224 21.3181C23.2224 21.3181 23.3782 27.9573 29.2191 35.2389C34.1644 41.4108 35.8582 46.9012 36.9875 52.2359C38.1167 57.5706 43.7629 64.9301 47.3453 66.6434C51.395 68.5904 55.9314 68.1426 60.4484 67.7727C66.6008 67.2859 71.6239 65.0275 71.6239 65.0275"></path>
<path stroke-linejoin="round" stroke-linecap="round" stroke-width="2" stroke="white" d="M46.684 29.4179C46.684 29.4179 48.9424 26.6727 53.1674 26.8284C57.3923 26.9842 57.0418 29.2037 56.5745 30.0604C55.6011 31.8321 55.2701 34.4216 55.2701 34.4216"></path>
<path stroke-linejoin="round" stroke-linecap="round" stroke-width="2" stroke="white" d="M27.429 32.4939C27.429 32.4939 36.8133 27.8017 31.6344 16.8014"></path>
<path stroke-linejoin="round" stroke-linecap="round" stroke-width="2" stroke="white" d="M38.2711 55.9553C38.2711 55.9553 42.4766 60.005 46.1953 59.5183C49.914 59.0315 51.7052 55.6243 58.1691 57.4155"></path>
<path stroke-linejoin="round" stroke-linecap="round" stroke-width="2" stroke="white" d="M31.4789 29.087C31.4789 29.087 32.9391 33.9349 39.5783 35.3951C43.0828 36.1545 45.0882 38.6271 43.7837 43.6503C42.4792 48.6734 41.5252 54.8258 47.6776 59.0313"></path>
<path stroke-linejoin="round" stroke-linecap="round" stroke-width="2" stroke="white" d="M50.2471 39.6198H55.2702"></path>
<path stroke-linejoin="round" stroke-linecap="round" stroke-width="2" stroke="white" d="M50.2471 44.1367H55.2702"></path>
<path stroke-linejoin="round" stroke-linecap="round" stroke-width="2" stroke="white" d="M50.4211 48.8287H55.4248"></path>
</svg>
