<svg xml:space="preserve" style="enable-background:new 0 0 90 90;" viewBox="0 0 90 90" y="0px" x="0px" xmlns:xlink="http://www.w3.org/1999/xlink" xmlns="http://www.w3.org/2000/svg" id="Layer_1" version="1.1">
<style type="text/css">
	.st0{fill:#194F90;stroke:#5EB3E4;stroke-width:2.25;}
	.st1{fill:#FFFFFF;}
</style>
<path d="M88.88,45c0,24.23-19.64,43.88-43.88,43.88S1.12,69.23,1.12,45S20.77,1.12,45,1.12S88.88,20.77,88.88,45z" class="st0"></path>
<g>
	<g>
		<path d="M45.25,63.73c-4.17,0-9.84-2.07-13.13-11.94c-0.16-0.49,0.1-1.03,0.6-1.19c0.49-0.16,1.03,0.1,1.19,0.6
			c2.36,7.07,6.17,10.65,11.34,10.65s8.99-3.58,11.34-10.65c0.1-0.31,0.35-0.54,0.66-0.62c0.12-0.03,3.05-0.86,3.05-4.73
			c0-1.51-1.08-2.78-2.55-3.04c-5.79-1.03-11.02-4.41-14.34-9.3c-0.29-0.43-0.18-1.02,0.25-1.31c0.43-0.29,1.02-0.18,1.31,0.25
			c3.04,4.46,7.82,7.56,13.11,8.5c2.38,0.42,4.1,2.47,4.11,4.88c0,0,0,0.01,0,0.01c0,3.87-2.36,5.77-3.97,6.4
			C54.92,61.72,49.36,63.73,45.25,63.73z" class="st1"></path>
	</g>
	<g>
		<path d="M33.01,52.43c-0.08,0-0.15-0.01-0.23-0.03c-1.55-0.39-4.48-2.26-4.48-6.56c0-2.44,1.83-4.51,4.25-4.81
			c4.7-0.59,8.71-3.62,10.58-7.95c-0.59-0.9-1.11-1.85-1.57-2.86c-0.21-0.47,0-1.03,0.47-1.25c0.47-0.21,1.03,0,1.25,0.47
			c0.48,1.06,1.05,2.06,1.69,2.99c0.18,0.26,0.22,0.59,0.1,0.88c-2.03,5.22-6.74,8.9-12.29,9.59c-1.48,0.18-2.6,1.45-2.6,2.93
			c0,3.88,2.93,4.71,3.06,4.74c0.5,0.13,0.81,0.64,0.68,1.14C33.82,52.15,33.43,52.43,33.01,52.43z" class="st1"></path>
	</g>
	<g>
		<path d="M57.49,73.14c-0.14,0-0.29-0.03-0.42-0.1c-1.95-0.98-6.01-3-6.16-12.52c-0.01-0.52,0.41-0.95,0.93-0.96
			c0.52-0.01,0.95,0.41,0.96,0.93c0.13,8.37,3.38,9.99,5.12,10.86c0.46,0.23,0.65,0.8,0.42,1.26
			C58.16,72.95,57.83,73.14,57.49,73.14z" class="st1"></path>
	</g>
	<g>
		<path d="M33.01,73.14c-0.35,0-0.68-0.19-0.84-0.52c-0.23-0.46-0.04-1.03,0.42-1.26c1.74-0.87,4.99-2.49,5.12-10.86
			c0.01-0.52,0.43-0.93,0.96-0.93c0.52,0.01,0.93,0.44,0.93,0.96c-0.15,9.51-4.21,11.54-6.16,12.52
			C33.3,73.11,33.15,73.14,33.01,73.14z" class="st1"></path>
	</g>
	<g>
		<path d="M30.85,43.63c-0.46,0-0.86-0.33-0.93-0.8l-0.01-0.05c-0.02-0.1-0.03-0.19-0.05-0.28
			c0-0.01-0.01-0.03-0.01-0.04c-0.4-2.35-0.62-4.76-0.62-6.97c0-3.92,1.63-7.27,4.71-9.68c2.88-2.25,6.89-3.49,11.29-3.49
			s8.41,1.24,11.29,3.49c3.08,2.41,4.71,5.76,4.71,9.68c0,2.96-0.37,5.61-0.67,7.3c-0.09,0.51-0.58,0.85-1.09,0.76
			c-0.51-0.09-0.85-0.58-0.76-1.09c0.29-1.62,0.64-4.14,0.64-6.97c0-6.65-5.81-11.3-14.12-11.3s-14.12,4.65-14.12,11.3
			c0,2.11,0.2,4.4,0.59,6.64c0.03,0.13,0.05,0.26,0.06,0.37l0.01,0.05c0.08,0.51-0.27,0.99-0.79,1.07
			C30.95,43.63,30.9,43.63,30.85,43.63z" class="st1"></path>
	</g>
	<g>
		<path d="M54.38,26.42c-0.1,0-0.21-0.02-0.31-0.05c-0.49-0.17-0.75-0.71-0.57-1.2c0.77-2.17,0.65-4-0.37-5.44
			c-1.36-1.92-4.3-3.07-7.88-3.07c-3.57,0-6.52,1.15-7.88,3.07c-1.01,1.44-1.14,3.27-0.37,5.44c0.17,0.49-0.08,1.03-0.57,1.2
			c-0.49,0.17-1.03-0.08-1.2-0.57c-1.23-3.46-0.35-5.8,0.61-7.15c1.71-2.42,5.23-3.87,9.41-3.87s7.7,1.44,9.41,3.87
			c0.95,1.35,1.83,3.69,0.61,7.15C55.13,26.18,54.77,26.42,54.38,26.42z" class="st1"></path>
	</g>
	<g>
		<path d="M45.25,58.07c-2.8,0-3.87-1.12-3.98-1.24c0,0-0.01-0.01-0.01-0.01l-0.01-0.01c-0.34-0.39-0.29-0.98,0.1-1.32
			c0.39-0.33,0.96-0.29,1.3,0.08c0.08,0.07,0.78,0.63,2.6,0.63c1.82,0,2.52-0.57,2.6-0.63c0.34-0.38,0.92-0.41,1.3-0.08
			c0.39,0.34,0.43,0.93,0.1,1.32l-0.01,0.01c0,0-0.01,0.01-0.01,0.01C49.12,56.96,48.05,58.07,45.25,58.07z M47.84,55.59
			c0,0-0.02,0.03-0.01,0.01L47.84,55.59C47.83,55.59,47.84,55.59,47.84,55.59z M42.66,55.59l0.01,0.01
			C42.68,55.61,42.66,55.59,42.66,55.59C42.66,55.59,42.66,55.59,42.66,55.59z M47.83,55.59L47.83,55.59L47.83,55.59z M42.66,55.59
			L42.66,55.59L42.66,55.59z M47.84,55.58C47.84,55.59,47.84,55.59,47.84,55.58L47.84,55.58C47.84,55.59,47.84,55.59,47.84,55.58z
			 M42.66,55.58C42.66,55.59,42.66,55.59,42.66,55.58L42.66,55.58C42.66,55.59,42.66,55.59,42.66,55.58z" class="st1"></path>
	</g>
	<g>
		<path d="M51.24,48.56c-1.29,0-2.3-0.55-2.83-1.05c-0.34-0.28-0.45-0.77-0.24-1.17c0.24-0.46,0.81-0.64,1.27-0.39
			l0.01,0.01c0.09,0.05,0.15,0.09,0.22,0.16c0.17,0.15,1.47,1.26,3.52-0.11c0.15-0.1,0.34-0.16,0.52-0.16h0.94
			c0.52,0,0.94,0.42,0.94,0.94c0,0.52-0.42,0.94-0.94,0.94h-0.67C53,48.33,52.06,48.56,51.24,48.56z" class="st1"></path>
	</g>
	<g>
		<path d="M39.26,48.56c-0.82,0-1.76-0.22-2.76-0.83h-0.67c-0.52,0-0.94-0.42-0.94-0.94c0-0.52,0.42-0.94,0.94-0.94
			h0.94c0.19,0,0.37,0.05,0.52,0.16c2.06,1.37,3.36,0.27,3.52,0.11c0.07-0.07,0.13-0.12,0.22-0.16l0.01-0.01
			c0.46-0.24,1.03-0.07,1.27,0.39c0.21,0.4,0.1,0.89-0.24,1.17C41.56,48,40.55,48.56,39.26,48.56z" class="st1"></path>
	</g>
</g>
</svg>
